<svg width="82" height="21" viewBox="0 0 82 21" fill="none" xmlns="http://www.w3.org/2000/svg">
<path d="M4.496 8.296H13.932V11.824H4.496V8.296ZM4.832 16.36H15.5V20H0.324V0.399999H15.136V4.04H4.832V16.36ZM27.9572 4.712C29.1518 4.712 30.2158 4.95467 31.1492 5.44C32.1012 5.90667 32.8478 6.63467 33.3892 7.624C33.9305 8.59467 34.2012 9.84533 34.2012 11.376V20H29.8332V12.048C29.8332 10.8347 29.5625 9.93867 29.0212 9.36C28.4985 8.78133 27.7518 8.492 26.7812 8.492C26.0905 8.492 25.4652 8.64133 24.9052 8.94C24.3638 9.22 23.9345 9.65867 23.6172 10.256C23.3185 10.8533 23.1692 11.6187 23.1692 12.552V20H18.8012V4.936H22.9732V9.108L22.1892 7.848C22.7305 6.84 23.5052 6.06533 24.5132 5.524C25.5212 4.98267 26.6692 4.712 27.9572 4.712ZM41.9751 20L35.6471 4.936H40.1551L45.4191 17.9H43.1791L48.6391 4.936H52.8391L46.4831 20H41.9751ZM61.6873 20.224C59.97 20.224 58.458 19.888 57.1513 19.216C55.8633 18.544 54.8646 17.6293 54.1553 16.472C53.446 15.296 53.0913 13.9613 53.0913 12.468C53.0913 10.956 53.4366 9.62133 54.1273 8.464C54.8366 7.288 55.798 6.37333 57.0113 5.72C58.2246 5.048 59.5966 4.712 61.1273 4.712C62.602 4.712 63.9273 5.02933 65.1033 5.664C66.298 6.28 67.2406 7.176 67.9313 8.352C68.622 9.50933 68.9673 10.9 68.9673 12.524C68.9673 12.692 68.958 12.888 68.9393 13.112C68.9206 13.3173 68.902 13.5133 68.8833 13.7H56.6473V11.152H66.5873L64.9073 11.908C64.9073 11.124 64.7486 10.4427 64.4313 9.864C64.114 9.28533 63.6753 8.83733 63.1153 8.52C62.5553 8.184 61.902 8.016 61.1553 8.016C60.4086 8.016 59.746 8.184 59.1673 8.52C58.6073 8.83733 58.1686 9.29467 57.8513 9.892C57.534 10.4707 57.3753 11.1613 57.3753 11.964V12.636C57.3753 13.4573 57.5526 14.1853 57.9073 14.82C58.2806 15.436 58.794 15.912 59.4473 16.248C60.1193 16.5653 60.9033 16.724 61.7993 16.724C62.602 16.724 63.302 16.6027 63.8993 16.36C64.5153 16.1173 65.0753 15.7533 65.5793 15.268L67.9033 17.788C67.2126 18.572 66.3446 19.1787 65.2993 19.608C64.254 20.0187 63.05 20.224 61.6873 20.224ZM71.8754 20V4.936H76.0474V9.192L75.4594 7.96C75.9074 6.896 76.626 6.09333 77.6154 5.552C78.6047 4.992 79.8087 4.712 81.2274 4.712V8.744C81.0407 8.72533 80.8727 8.716 80.7234 8.716C80.574 8.69733 80.4154 8.688 80.2474 8.688C79.0527 8.688 78.082 9.03333 77.3354 9.724C76.6074 10.396 76.2434 11.4507 76.2434 12.888V20H71.8754Z" fill="white"/>
</svg>
